<svg width="28" height="29" viewBox="0 0 28 29" fill="none" xmlns="http://www.w3.org/2000/svg">
<rect y="0.5" width="28" height="28" rx="14" fill="#1C254E"/>
<g clip-path="url(#clip0_4450_2759)">
<path d="M12.1447 10.0388C12.1739 9.83527 12.2818 9.65686 12.4448 9.54279C12.6077 9.42872 12.8122 9.38834 13.0135 9.43052L17.843 10.4436C18.0442 10.4859 18.2256 10.6072 18.3473 10.781C18.4689 10.9548 18.5209 11.1667 18.4918 11.3703L17.792 16.255C17.7597 16.4555 17.6508 16.6303 17.4887 16.7416C17.3266 16.8529 17.1242 16.8918 16.9252 16.8501C16.7262 16.8084 16.5465 16.6892 16.4248 16.5184C16.3031 16.3475 16.2491 16.1387 16.2745 15.9367L16.656 12.9419L10.8195 17.0286C10.6566 17.1427 10.452 17.1831 10.2507 17.1409C10.0494 17.0986 9.86799 16.9773 9.74629 16.8035C9.6246 16.6297 9.57261 16.4177 9.60177 16.2141C9.63094 16.0105 9.73886 15.8321 9.9018 15.718L15.7383 11.6312L12.7936 10.9654C12.5923 10.9232 12.411 10.8018 12.2893 10.6281C12.1676 10.4543 12.1156 10.2423 12.1447 10.0388Z" fill="#E8E9ED"/>
</g>
<defs>
<clipPath id="clip0_4450_2759">
<rect width="11.25" height="12" fill="white" transform="translate(6 12.1036) rotate(-35)"/>
</clipPath>
</defs>
</svg>
