<svg width="28" height="29" viewBox="0 0 28 29" fill="none" xmlns="http://www.w3.org/2000/svg">
<rect y="0.5" width="28" height="28" rx="14" fill="#E8E9ED"/>
<g clip-path="url(#clip0_4450_2772)">
<path d="M14.6455 9.62623C14.7862 9.47625 14.9769 9.392 15.1758 9.392C15.3747 9.392 15.5654 9.47625 15.706 9.62623L19.081 13.2262C19.2216 13.3762 19.3006 13.5797 19.3006 13.7918C19.3006 14.004 19.2216 14.2074 19.081 14.3574L15.706 17.9574C15.5646 18.1032 15.3751 18.1838 15.1785 18.182C14.9818 18.1801 14.7937 18.096 14.6547 17.9477C14.5156 17.7994 14.4367 17.5987 14.435 17.3889C14.4333 17.1792 14.5089 16.9771 14.6455 16.8262L16.6758 14.5918H9.55078C9.35187 14.5918 9.1611 14.5075 9.02045 14.3575C8.8798 14.2075 8.80078 14.004 8.80078 13.7918C8.80078 13.5797 8.8798 13.3762 9.02045 13.2261C9.1611 13.0761 9.35187 12.9918 9.55078 12.9918H16.6758L14.6455 10.7574C14.5049 10.6074 14.4259 10.404 14.4259 10.1918C14.4259 9.9797 14.5049 9.77625 14.6455 9.62623Z" fill="#1C254E"/>
</g>
<defs>
<clipPath id="clip0_4450_2772">
<rect width="11.25" height="12" fill="white" transform="translate(8.42578 7.79205)"/>
</clipPath>
</defs>
</svg>
