<svg width="20" height="21" viewBox="0 0 20 21" fill="none" xmlns="http://www.w3.org/2000/svg">
<path d="M4.375 4.5708C3.5462 4.5708 2.75134 4.90004 2.16529 5.48609C1.57924 6.07214 1.25 6.867 1.25 7.6958V8.3208H18.75V7.6958C18.75 6.867 18.4208 6.07214 17.8347 5.48609C17.2487 4.90004 16.4538 4.5708 15.625 4.5708H4.375ZM18.75 9.5708H1.25V13.9458C1.25 14.7746 1.57924 15.5695 2.16529 16.1555C2.75134 16.7416 3.5462 17.0708 4.375 17.0708H15.625C16.4538 17.0708 17.2487 16.7416 17.8347 16.1555C18.4208 15.5695 18.75 14.7746 18.75 13.9458V9.5708ZM13.125 13.3208H15.625C15.7908 13.3208 15.9497 13.3866 16.0669 13.5039C16.1842 13.6211 16.25 13.78 16.25 13.9458C16.25 14.1116 16.1842 14.2705 16.0669 14.3877C15.9497 14.505 15.7908 14.5708 15.625 14.5708H13.125C12.9592 14.5708 12.8003 14.505 12.6831 14.3877C12.5658 14.2705 12.5 14.1116 12.5 13.9458C12.5 13.78 12.5658 13.6211 12.6831 13.5039C12.8003 13.3866 12.9592 13.3208 13.125 13.3208Z" fill="white"/>
</svg>
