<svg width="20" height="21" viewBox="0 0 20 21" fill="none" xmlns="http://www.w3.org/2000/svg">
<path d="M9.16699 3.4708V18.1708C9.16699 18.7041 8.67533 19.1041 8.15866 18.9875C4.43366 18.1541 1.66699 14.8125 1.66699 10.8208C1.66699 6.82914 4.43366 3.48747 8.15866 2.65414C8.28037 2.62768 8.40647 2.62889 8.52765 2.65769C8.64882 2.68649 8.76198 2.74214 8.85877 2.82054C8.95556 2.89893 9.03351 2.99806 9.08686 3.11061C9.1402 3.22316 9.16759 3.34625 9.16699 3.4708ZM10.8587 3.4708V9.1458C10.8587 9.60414 11.2337 9.97914 11.692 9.97914H17.3503C17.8837 9.97914 18.2837 9.48747 18.167 8.96247C17.4587 5.82914 15.0003 3.36247 11.8753 2.65414C11.3503 2.53747 10.8587 2.93747 10.8587 3.4708ZM10.8587 12.4958V18.1708C10.8587 18.7041 11.3503 19.1041 11.8753 18.9875C15.0087 18.2791 17.467 15.8041 18.1753 12.6708C18.292 12.1541 17.8837 11.6541 17.3587 11.6541H11.7003C11.2337 11.6625 10.8587 12.0375 10.8587 12.4958Z" fill="white"/>
</svg>
