<svg width="16" height="22" viewBox="0 0 16 22" fill="none" xmlns="http://www.w3.org/2000/svg">
<path fill-rule="evenodd" clip-rule="evenodd" d="M10.1991 1.05609C9.91746 0.725043 9.56726 0.459142 9.17272 0.276792C8.77818 0.0944429 8.34873 0 7.91409 0C7.47945 0 7.05 0.0944429 6.65547 0.276792C6.26093 0.459142 5.91073 0.725043 5.62909 1.05609L5.58709 1.10609C5.48434 1.22664 5.35442 1.32105 5.20803 1.38155C5.06164 1.44206 4.90297 1.46692 4.74509 1.45409L4.68009 1.44909C4.24702 1.41439 3.81158 1.47415 3.40388 1.62427C2.99618 1.77438 2.62594 2.01126 2.31878 2.31851C2.01162 2.62577 1.77486 2.99608 1.62487 3.40382C1.47489 3.81157 1.41525 4.24703 1.45009 4.68009L1.45409 4.74509C1.46692 4.90297 1.44206 5.06164 1.38155 5.20803C1.32105 5.35442 1.22664 5.48434 1.10609 5.58709L1.05609 5.62909C0.725043 5.91073 0.459142 6.26093 0.276793 6.65547C0.0944431 7.05 0 7.47945 0 7.91409C0 8.34873 0.0944431 8.77818 0.276793 9.17272C0.459142 9.56726 0.725043 9.91746 1.05609 10.1991L1.10609 10.2411C1.22664 10.3438 1.32105 10.4738 1.38155 10.6202C1.44206 10.7665 1.46692 10.9252 1.45409 11.0831L1.44909 11.1481C1.38953 11.8917 1.60898 12.6309 2.06468 13.2216C2.52038 13.8122 3.17968 14.212 3.91409 14.3431V20.9141C3.91407 21.0951 3.96319 21.2728 4.05622 21.4281C4.14925 21.5834 4.2827 21.7106 4.44233 21.796C4.60196 21.8814 4.78178 21.9218 4.96261 21.9131C5.14344 21.9043 5.31849 21.8466 5.46909 21.7461L7.91409 20.1161L10.3591 21.7461C10.5097 21.8466 10.6847 21.9043 10.8656 21.9131C11.0464 21.9218 11.2262 21.8814 11.3859 21.796C11.5455 21.7106 11.6789 21.5834 11.772 21.4281C11.865 21.2728 11.9141 21.0951 11.9141 20.9141V14.3441C12.6487 14.213 13.3081 13.813 13.7639 13.2222C14.2196 12.6313 14.4389 11.8919 14.3791 11.1481L14.3741 11.0831C14.3613 10.9252 14.3861 10.7665 14.4466 10.6202C14.5071 10.4738 14.6015 10.3438 14.7221 10.2411L14.7721 10.1991C15.1031 9.91746 15.369 9.56726 15.5514 9.17272C15.7337 8.77818 15.8282 8.34873 15.8282 7.91409C15.8282 7.47945 15.7337 7.05 15.5514 6.65547C15.369 6.26093 15.1031 5.91073 14.7721 5.62909L14.7221 5.58709C14.6015 5.48434 14.5071 5.35442 14.4466 5.20803C14.3861 5.06164 14.3613 4.90297 14.3741 4.74509L14.3791 4.68009C14.4138 4.24702 14.354 3.81158 14.2039 3.40388C14.0538 2.99618 13.8169 2.62594 13.5097 2.31878C13.2024 2.01162 12.8321 1.77486 12.4244 1.62487C12.0166 1.47489 11.5812 1.41525 11.1481 1.45009L11.0831 1.45409C10.9252 1.46692 10.7665 1.44206 10.6202 1.38155C10.4738 1.32105 10.3438 1.22664 10.2411 1.10609L10.1991 1.05609ZM5.91409 19.0461V15.0641C6.46432 15.5556 7.17629 15.8273 7.91409 15.8273C8.6519 15.8273 9.36387 15.5556 9.91409 15.0641V19.0441L8.46909 18.0811C8.30476 17.9715 8.11164 17.9129 7.91409 17.9129C7.71655 17.9129 7.52342 17.9715 7.35909 18.0811L5.91409 19.0461Z" fill="#FFF5E2"/>
<path d="M7.67168 11.9141V6.02906L6.32168 6.85406V5.52406L7.67168 4.71406H8.90168V11.9141H7.67168Z" fill="#F0A900"/>
</svg>
