<svg width="225" height="50" viewBox="0 0 225 50" fill="none" xmlns="http://www.w3.org/2000/svg">
<path d="M103.198 28.3167C103.196 28.687 103.048 29.0415 102.786 29.3033C102.524 29.5652 102.17 29.7132 101.8 29.7154H96.1233C95.7523 29.7154 95.3966 29.568 95.1343 29.3057C94.872 29.0434 94.7246 28.6876 94.7246 28.3167V17.6427H91.2648V28.2104C91.2648 29.295 91.6956 30.3352 92.4626 31.1022C93.2296 31.8691 94.2698 32.3 95.3544 32.3H102.528C103.612 32.3 104.653 31.8691 105.419 31.1022C106.186 30.3352 106.617 29.295 106.617 28.2104V17.6427H103.174L103.198 28.3167Z" fill="#223B82"/>
<path d="M145.951 17.6427H138.77C137.685 17.6427 136.645 18.0736 135.878 18.8406C135.111 19.6075 134.68 20.6477 134.68 21.7324V32.3082H138.132V27.5724H146.606V32.3082H150.041V21.7406C150.042 21.2028 149.937 20.6701 149.732 20.173C149.527 19.6759 149.226 19.2241 148.846 18.8434C148.466 18.4628 148.015 18.1609 147.518 17.9548C147.022 17.7488 146.489 17.6427 145.951 17.6427ZM146.598 25.0041H138.091V21.667C138.093 21.2967 138.241 20.9421 138.503 20.6803C138.765 20.4185 139.12 20.2704 139.49 20.2683H145.134C145.504 20.2683 145.86 20.4156 146.123 20.6779C146.385 20.9402 146.532 21.296 146.532 21.667L146.598 25.0041Z" fill="#223B82"/>
<path d="M131.024 17.6427H127.573V32.3082H131.024V17.6427Z" fill="#223B82"/>
<path d="M124.186 17.6427H119.704L112.588 24.4315V17.6427H109.136V32.3164H112.588V25.184L120.031 32.3164H124.514L116.351 24.8078L124.186 17.6427Z" fill="#223B82"/>
<path d="M84.6641 17.6427H73.4012V32.3164H84.6723C85.7569 32.3164 86.7972 31.8855 87.5641 31.1185C88.3311 30.3516 88.7619 29.3114 88.7619 28.2267V21.7815C88.7684 21.2396 88.6672 20.7018 88.4641 20.1994C88.2609 19.697 87.96 19.24 87.5787 18.855C87.1975 18.4699 86.7435 18.1644 86.2431 17.9563C85.7427 17.7482 85.206 17.6416 84.6641 17.6427ZM85.3266 28.3494C85.3266 28.7117 85.1827 29.0591 84.9266 29.3153C84.6704 29.5715 84.323 29.7154 83.9607 29.7154H76.8529V20.2437H83.9607C84.323 20.2437 84.6704 20.3877 84.9266 20.6438C85.1827 20.9 85.3266 21.2474 85.3266 21.6097V28.3494Z" fill="#223B82"/>
<path d="M186.962 17.6427H179.781C178.696 17.6427 177.656 18.0736 176.889 18.8406C176.122 19.6075 175.691 20.6477 175.691 21.7324V28.2022C175.691 29.2868 176.122 30.327 176.889 31.094C177.656 31.861 178.696 32.2918 179.781 32.2918H186.962C188.047 32.2918 189.087 31.861 189.854 31.094C190.621 30.327 191.052 29.2868 191.052 28.2022V21.7324C191.052 20.6477 190.621 19.6075 189.854 18.8406C189.087 18.0736 188.047 17.6427 186.962 17.6427ZM187.609 25.1677V28.3167C187.606 28.687 187.458 29.0415 187.197 29.3033C186.935 29.5652 186.58 29.7132 186.21 29.7154H180.534C180.163 29.7132 179.809 29.5652 179.547 29.3033C179.285 29.0415 179.137 28.687 179.135 28.3167V21.6424C179.135 21.2715 179.282 20.9157 179.545 20.6534C179.807 20.3911 180.163 20.2437 180.534 20.2437H186.21C186.581 20.2437 186.937 20.3911 187.199 20.6534C187.461 20.9157 187.609 21.2715 187.609 21.6424V25.1677Z" fill="#223B82"/>
<path d="M220.383 17.6427H209.087V32.3082H220.383C221.468 32.3082 222.508 31.8773 223.275 31.1104C224.042 30.3434 224.473 29.3032 224.473 28.2185V21.7733C224.478 21.2328 224.376 20.6966 224.173 20.1957C223.97 19.6948 223.67 19.2391 223.289 18.855C222.909 18.4709 222.456 18.166 221.958 17.9579C221.459 17.7498 220.924 17.6427 220.383 17.6427ZM221.037 28.3494C221.037 28.7095 220.894 29.0549 220.64 29.3095C220.385 29.5641 220.04 29.7072 219.68 29.7072H212.572V20.2437H219.68C219.858 20.2437 220.034 20.2789 220.199 20.3471C220.364 20.4153 220.514 20.5153 220.64 20.6414C220.766 20.7675 220.866 20.9172 220.934 21.0819C221.002 21.2466 221.037 21.4232 221.037 21.6015V28.3494Z" fill="#223B82"/>
<path d="M197.064 17.6345H193.612V31.2776C193.611 31.4136 193.637 31.5485 193.688 31.6745C193.74 31.8005 193.815 31.915 193.911 32.0116C194.007 32.1082 194.121 32.1848 194.247 32.2371C194.372 32.2894 194.507 32.3164 194.643 32.3164H206.536V29.7072H197.064V17.6345Z" fill="#223B82"/>
<path d="M161.206 21.6424C161.206 21.2715 161.353 20.9157 161.615 20.6534C161.878 20.3911 162.234 20.2437 162.604 20.2437H173.131V17.6427H161.852C160.767 17.6427 159.727 18.0736 158.96 18.8406C158.193 19.6075 157.762 20.6477 157.762 21.7324V28.2022C157.762 29.2868 158.193 30.327 158.96 31.094C159.727 31.861 160.767 32.2918 161.852 32.2918H173.131V24.5951C173.129 24.3492 173.03 24.1142 172.855 23.9411C172.681 23.768 172.445 23.6709 172.199 23.6709H165.443V26.231H169.671V29.7154H162.596C162.226 29.7132 161.871 29.5652 161.61 29.3033C161.348 29.0415 161.2 28.687 161.198 28.3167V21.6424H161.206Z" fill="#223B82"/>
<path d="M174.227 1.94668C174.512 2.17734 174.825 2.36983 175.16 2.51924C174.867 2.39479 174.592 2.23254 174.342 2.03665C174.281 1.99533 174.223 1.94881 174.17 1.89761C174.062 1.82156 173.964 1.73377 173.876 1.63586C173.983 1.74964 174.101 1.85365 174.227 1.94668Z" fill="url(#paint0_linear_4207_3675)"/>
<path d="M42.3199 6.0342e-06H14.9602C14.7362 -0.000685072 14.516 0.0580006 14.322 0.170067C14.1281 0.282133 13.9673 0.443589 13.856 0.638002L0.172039 24.3579C0.0593313 24.5531 0 24.7746 0 25C0 25.2254 0.0593313 25.4469 0.172039 25.6421L13.856 49.362C13.9673 49.5564 14.1281 49.7179 14.322 49.83C14.516 49.942 14.7362 50.0007 14.9602 50H42.3199C42.5448 49.9996 42.7657 49.9406 42.9608 49.8287C43.1559 49.7168 43.3184 49.556 43.4323 49.362L57.1081 25.6421C57.2208 25.4469 57.2801 25.2254 57.2801 25C57.2801 24.7746 57.2208 24.5531 57.1081 24.3579L43.4323 0.638002C43.3184 0.444061 43.1559 0.283193 42.9608 0.171302C42.7657 0.0594118 42.5448 0.000361727 42.3199 6.0342e-06Z" fill="url(#paint1_linear_4207_3675)"/>
<path d="M14.4203 49.6074L0.196533 24.9714L14.4203 0.343567H42.8597L57.0835 24.9714L42.8597 49.6074H14.4203Z" fill="url(#paint2_linear_4207_3675)"/>
<path d="M38.8683 27.5233V29.8217C38.8683 29.9461 38.8194 30.0656 38.7322 30.1543C38.645 30.243 38.5264 30.294 38.402 30.2961H35.9482V27.0244H38.402C38.4661 27.0242 38.5295 27.0373 38.5883 27.0627C38.6471 27.0882 38.7001 27.1255 38.7438 27.1723C38.7876 27.2191 38.8212 27.2745 38.8426 27.3349C38.864 27.3953 38.8728 27.4594 38.8683 27.5233Z" fill="url(#paint3_linear_4207_3675)"/>
<path d="M26.9674 27.0489H25.0289C24.9659 27.0478 24.9033 27.0593 24.8448 27.0826C24.7863 27.106 24.733 27.1408 24.6881 27.1849C24.6432 27.2291 24.6075 27.2818 24.5832 27.3398C24.5588 27.3979 24.5463 27.4603 24.5463 27.5233V29.8135C24.5484 29.9401 24.6002 30.0607 24.6905 30.1495C24.7808 30.2382 24.9023 30.2879 25.0289 30.2879H26.9674C27.0925 30.2858 27.212 30.2351 27.3005 30.1466C27.389 30.0581 27.4397 29.9387 27.4418 29.8135V27.5233C27.4418 27.3975 27.3918 27.2768 27.3028 27.1879C27.2138 27.0989 27.0932 27.0489 26.9674 27.0489ZM26.9674 27.0489H25.0289C24.9659 27.0478 24.9033 27.0593 24.8448 27.0826C24.7863 27.106 24.733 27.1408 24.6881 27.1849C24.6432 27.2291 24.6075 27.2818 24.5832 27.3398C24.5588 27.3979 24.5463 27.4603 24.5463 27.5233V29.8135C24.5484 29.9401 24.6002 30.0607 24.6905 30.1495C24.7808 30.2382 24.9023 30.2879 25.0289 30.2879H26.9674C27.0925 30.2858 27.212 30.2351 27.3005 30.1466C27.389 30.0581 27.4397 29.9387 27.4418 29.8135V27.5233C27.4418 27.3975 27.3918 27.2768 27.3028 27.1879C27.2138 27.0989 27.0932 27.0489 26.9674 27.0489ZM19.1725 19.6875H16.7187V22.9593H19.1725C19.2344 22.9603 19.2959 22.9491 19.3534 22.9261C19.4109 22.9032 19.4633 22.869 19.5075 22.8256C19.5516 22.7822 19.5867 22.7305 19.6106 22.6734C19.6346 22.6162 19.6469 22.555 19.6469 22.493V20.1865C19.6502 20.1221 19.6404 20.0578 19.6181 19.9974C19.5957 19.937 19.5613 19.8817 19.5169 19.8351C19.4725 19.7884 19.4191 19.7512 19.3599 19.7259C19.3007 19.7005 19.2369 19.6875 19.1725 19.6875ZM26.9919 27.0898H25.0534C24.9904 27.0887 24.9279 27.1002 24.8694 27.1235C24.8108 27.1469 24.7576 27.1817 24.7127 27.2258C24.6677 27.27 24.6321 27.3226 24.6077 27.3807C24.5834 27.4388 24.5708 27.5012 24.5708 27.5642V29.8544C24.573 29.981 24.6248 30.1016 24.715 30.1903C24.8053 30.2791 24.9268 30.3288 25.0534 30.3288H26.9919C27.1171 30.3267 27.2365 30.276 27.325 30.1875C27.4135 30.099 27.4642 29.9796 27.4663 29.8544V27.5642C27.4723 27.4964 27.4636 27.4282 27.4409 27.364C27.4181 27.2999 27.3819 27.2415 27.3345 27.1926C27.2872 27.1437 27.2299 27.1056 27.1666 27.0808C27.1032 27.056 27.0353 27.0451 26.9674 27.0489L26.9919 27.0898ZM26.9919 27.0898H25.0534C24.9904 27.0887 24.9279 27.1002 24.8694 27.1235C24.8108 27.1469 24.7576 27.1817 24.7127 27.2258C24.6677 27.27 24.6321 27.3226 24.6077 27.3807C24.5834 27.4388 24.5708 27.5012 24.5708 27.5642V29.8544C24.573 29.981 24.6248 30.1016 24.715 30.1903C24.8053 30.2791 24.9268 30.3288 25.0534 30.3288H26.9919C27.1171 30.3267 27.2365 30.276 27.325 30.1875C27.4135 30.099 27.4642 29.9796 27.4663 29.8544V27.5642C27.4723 27.4964 27.4636 27.4282 27.4409 27.364C27.4181 27.2999 27.3819 27.2415 27.3345 27.1926C27.2872 27.1437 27.2299 27.1056 27.1666 27.0808C27.1032 27.056 27.0353 27.0451 26.9674 27.0489L26.9919 27.0898ZM19.1725 19.6875H16.7187V22.9593H19.1725C19.2344 22.9603 19.2959 22.9491 19.3534 22.9261C19.4109 22.9032 19.4633 22.869 19.5075 22.8256C19.5516 22.7822 19.5867 22.7305 19.6106 22.6734C19.6346 22.6162 19.6469 22.555 19.6469 22.493V20.1865C19.6502 20.1221 19.6404 20.0578 19.6181 19.9974C19.5957 19.937 19.5613 19.8817 19.5169 19.8351C19.4725 19.7884 19.4191 19.7512 19.3599 19.7259C19.3007 19.7005 19.2369 19.6875 19.1725 19.6875ZM19.1725 19.6875H16.7187V22.9593H19.1725C19.2344 22.9603 19.2959 22.9491 19.3534 22.9261C19.4109 22.9032 19.4633 22.869 19.5075 22.8256C19.5516 22.7822 19.5867 22.7305 19.6106 22.6734C19.6346 22.6162 19.6469 22.555 19.6469 22.493V20.1865C19.6502 20.1221 19.6404 20.0578 19.6181 19.9974C19.5957 19.937 19.5613 19.8817 19.5169 19.8351C19.4725 19.7884 19.4191 19.7512 19.3599 19.7259C19.3007 19.7005 19.2369 19.6875 19.1725 19.6875ZM26.9919 27.0898H25.0534C24.9904 27.0887 24.9279 27.1002 24.8694 27.1235C24.8108 27.1469 24.7576 27.1817 24.7127 27.2258C24.6677 27.27 24.6321 27.3226 24.6077 27.3807C24.5834 27.4388 24.5708 27.5012 24.5708 27.5642V29.8544C24.573 29.981 24.6248 30.1016 24.715 30.1903C24.8053 30.2791 24.9268 30.3288 25.0534 30.3288H26.9919C27.1171 30.3267 27.2365 30.276 27.325 30.1875C27.4135 30.099 27.4642 29.9796 27.4663 29.8544V27.5642C27.4723 27.4964 27.4636 27.4282 27.4409 27.364C27.4181 27.2999 27.3819 27.2415 27.3345 27.1926C27.2872 27.1437 27.2299 27.1056 27.1666 27.0808C27.1032 27.056 27.0353 27.0451 26.9674 27.0489L26.9919 27.0898ZM26.9919 27.0898H25.0534C24.9904 27.0887 24.9279 27.1002 24.8694 27.1235C24.8108 27.1469 24.7576 27.1817 24.7127 27.2258C24.6677 27.27 24.6321 27.3226 24.6077 27.3807C24.5834 27.4388 24.5708 27.5012 24.5708 27.5642V29.8544C24.573 29.981 24.6248 30.1016 24.715 30.1903C24.8053 30.2791 24.9268 30.3288 25.0534 30.3288H26.9919C27.1171 30.3267 27.2365 30.276 27.325 30.1875C27.4135 30.099 27.4642 29.9796 27.4663 29.8544V27.5642C27.4723 27.4964 27.4636 27.4282 27.4409 27.364C27.4181 27.2999 27.3819 27.2415 27.3345 27.1926C27.2872 27.1437 27.2299 27.1056 27.1666 27.0808C27.1032 27.056 27.0353 27.0451 26.9674 27.0489L26.9919 27.0898ZM19.1725 19.6875H16.7187V22.9593H19.1725C19.2344 22.9603 19.2959 22.9491 19.3534 22.9261C19.4109 22.9032 19.4633 22.869 19.5075 22.8256C19.5516 22.7822 19.5867 22.7305 19.6106 22.6734C19.6346 22.6162 19.6469 22.555 19.6469 22.493V20.1865C19.6502 20.1221 19.6404 20.0578 19.6181 19.9974C19.5957 19.937 19.5613 19.8817 19.5169 19.8351C19.4725 19.7884 19.4191 19.7512 19.3599 19.7259C19.3007 19.7005 19.2369 19.6875 19.1725 19.6875ZM28.6687 6.71521C25.0491 6.71359 21.5105 7.78551 18.5003 9.79539C15.4901 11.8053 13.1436 14.6628 11.7578 18.0065C10.3719 21.3502 10.0089 25.0298 10.7146 28.5798C11.4203 32.1299 13.1631 35.3909 15.7225 37.9502C18.2819 40.5096 21.5429 42.2524 25.0929 42.9581C28.6429 43.6639 32.3226 43.3008 35.6662 41.915C39.0099 40.5291 41.8675 38.1826 43.8773 35.1724C45.8872 32.1623 46.9592 28.6236 46.9575 25.0041C46.9618 22.5975 46.4912 20.2138 45.5724 17.9895C44.6537 15.7652 43.3051 13.7441 41.6038 12.042C39.9025 10.34 37.882 8.9904 35.6581 8.0707C33.4342 7.151 31.0507 6.67925 28.6441 6.68248L28.6687 6.71521ZM15.5818 23.8099V18.796H19.4424C19.8155 18.796 20.1734 18.9442 20.4372 19.2081C20.701 19.4719 20.8493 19.8297 20.8493 20.2028V22.4031C20.8503 22.5881 20.8147 22.7716 20.7444 22.9427C20.6741 23.1139 20.5705 23.2694 20.4396 23.4003C20.3088 23.5311 20.1532 23.6347 19.9821 23.705C19.8109 23.7753 19.6275 23.811 19.4424 23.8099H15.5818ZM22.5424 27.0816H18.9435C18.8155 27.0816 18.6928 27.1325 18.6023 27.223C18.5117 27.3135 18.4609 27.4362 18.4609 27.5642V29.8462C18.4609 29.9742 18.5117 30.0969 18.6023 30.1874C18.6928 30.278 18.8155 30.3288 18.9435 30.3288H21.3973V29.1346H19.9495V28.2431H22.2643C22.3489 28.2431 22.43 28.2767 22.4898 28.3365C22.5497 28.3963 22.5833 28.4775 22.5833 28.5621V31.2203H18.7226C18.3509 31.2182 17.9952 31.069 17.7331 30.8054C17.4711 30.5418 17.324 30.1852 17.324 29.8135V27.6051C17.324 27.2334 17.4711 26.8768 17.7331 26.6132C17.9952 26.3496 18.3509 26.2004 18.7226 26.1982H22.5833L22.5424 27.0816ZM21.7244 22.4112V18.796H22.9104V22.444C22.9093 22.5069 22.9208 22.5695 22.9442 22.628C22.9675 22.6865 23.0023 22.7398 23.0465 22.7847C23.0906 22.8296 23.1433 22.8653 23.2014 22.8897C23.2595 22.914 23.3218 22.9265 23.3848 22.9265H25.3315C25.3945 22.9265 25.4569 22.914 25.515 22.8897C25.5731 22.8653 25.6257 22.8296 25.6699 22.7847C25.714 22.7398 25.7488 22.6865 25.7722 22.628C25.7955 22.5695 25.807 22.5069 25.8059 22.444V18.796H26.9919V22.4112C26.9919 22.5956 26.9555 22.7781 26.8847 22.9484C26.8139 23.1186 26.7101 23.2732 26.5794 23.4031C26.4486 23.5331 26.2935 23.636 26.1228 23.7058C25.9522 23.7756 25.7694 23.811 25.5851 23.8099H23.1313C22.9364 23.8236 22.7407 23.7965 22.5569 23.7304C22.373 23.6643 22.2049 23.5606 22.0633 23.4259C21.9217 23.2912 21.8097 23.1286 21.7345 22.9482C21.6593 22.7679 21.6224 22.5739 21.6263 22.3785L21.7244 22.4112ZM28.7096 29.7726C28.7074 30.145 28.5585 30.5017 28.2951 30.765C28.0318 31.0284 27.6752 31.1773 27.3027 31.1794H24.8489C24.4765 31.1773 24.1199 31.0284 23.8565 30.765C23.5931 30.5017 23.4442 30.145 23.4421 29.7726V27.5642C23.4421 27.1911 23.5903 26.8333 23.8541 26.5694C24.118 26.3056 24.4758 26.1574 24.8489 26.1574H27.3027C27.6758 26.1574 28.0337 26.3056 28.2975 26.5694C28.5613 26.8333 28.7096 27.1911 28.7096 27.5642V29.7726ZM29.0204 23.769H27.7608V18.7551H28.9386V21.078L31.3924 18.7551H32.9219L30.2473 21.2089L33.0364 23.7772H31.5069L28.9549 21.3234L29.0204 23.769ZM34.0016 31.1794H29.9119C29.8643 31.1806 29.817 31.172 29.7729 31.1543C29.7287 31.1366 29.6886 31.1102 29.6549 31.0765C29.6213 31.0429 29.5948 31.0028 29.5771 30.9586C29.5594 30.9144 29.5509 30.8671 29.552 30.8195V26.1574H30.7298V30.247H34.0016V31.1794ZM34.1488 18.7551H35.3266V23.7772H34.1488V18.7551ZM40.1278 29.7726C40.1278 30.1443 39.9807 30.5009 39.7187 30.7645C39.4566 31.0281 39.1009 31.1773 38.7292 31.1794H34.8686V26.1574H38.721C38.906 26.1563 39.0895 26.1919 39.2607 26.2622C39.4318 26.3326 39.5874 26.4361 39.7182 26.567C39.8491 26.6979 39.9526 26.8534 40.023 27.0245C40.0933 27.1957 40.1289 27.3792 40.1278 27.5642V29.7726ZM40.6431 23.769V22.1331H37.7477V23.769H36.5698V20.1538C36.5698 19.7828 36.7172 19.4271 36.9795 19.1648C37.2418 18.9025 37.5976 18.7551 37.9685 18.7551H40.4223C40.7926 18.7572 41.1471 18.9053 41.4089 19.1671C41.6707 19.429 41.8188 19.7835 41.8209 20.1538V23.7772L40.6431 23.769ZM40.1606 19.6794H38.1484C38.0855 19.6783 38.0229 19.6897 37.9644 19.7131C37.9059 19.7365 37.8526 19.7712 37.8077 19.8154C37.7628 19.8596 37.7271 19.9122 37.7027 19.9703C37.6784 20.0284 37.6659 20.0908 37.6659 20.1538V21.2989H40.5613V20.1538C40.5603 20.0915 40.5469 20.03 40.5221 19.9728C40.4973 19.9157 40.4614 19.864 40.4166 19.8207C40.3718 19.7774 40.3189 19.7434 40.2609 19.7205C40.203 19.6977 40.1411 19.6865 40.0788 19.6875L40.1606 19.6794ZM27.0737 27.0816H25.1352C25.0722 27.0805 25.0096 27.092 24.9511 27.1153C24.8926 27.1387 24.8394 27.1735 24.7945 27.2176C24.7495 27.2618 24.7139 27.3145 24.6895 27.3726C24.6652 27.4307 24.6526 27.493 24.6526 27.556V29.8462C24.6548 29.9728 24.7066 30.0934 24.7968 30.1822C24.8871 30.2709 25.0086 30.3206 25.1352 30.3206H27.0737C27.1989 30.3185 27.3183 30.2679 27.4068 30.1793C27.4953 30.0908 27.546 29.9714 27.5481 29.8462V27.556C27.5553 27.481 27.5445 27.4054 27.5167 27.3354C27.4888 27.2653 27.4447 27.203 27.3879 27.1534C27.3311 27.1038 27.2634 27.0685 27.1903 27.0503C27.1171 27.0322 27.0407 27.0317 26.9674 27.0489L27.0737 27.0816ZM19.7123 22.4521V20.1456C19.7107 20.0788 19.6949 20.013 19.6661 19.9527C19.6372 19.8924 19.596 19.8389 19.545 19.7957C19.494 19.7524 19.4345 19.7204 19.3703 19.7018C19.3061 19.6832 19.2387 19.6783 19.1725 19.6875H16.7187V22.9593H19.1725C19.2383 22.9576 19.3029 22.9421 19.3622 22.9136C19.4216 22.8852 19.4742 22.8446 19.5167 22.7943C19.5592 22.7441 19.5906 22.6855 19.6088 22.6223C19.627 22.5591 19.6316 22.4927 19.6224 22.4276L19.7123 22.4521ZM19.1725 19.6875H16.7187V22.9593H19.1725C19.2344 22.9603 19.2959 22.9491 19.3534 22.9261C19.4109 22.9032 19.4633 22.869 19.5075 22.8256C19.5516 22.7822 19.5867 22.7305 19.6106 22.6734C19.6346 22.6162 19.6469 22.555 19.6469 22.493V20.1865C19.6502 20.1221 19.6404 20.0578 19.6181 19.9974C19.5957 19.937 19.5613 19.8817 19.5169 19.8351C19.4725 19.7884 19.4191 19.7512 19.3599 19.7259C19.3007 19.7005 19.2369 19.6875 19.1725 19.6875ZM26.9919 27.0898H25.0534C24.9904 27.0887 24.9279 27.1002 24.8694 27.1235C24.8108 27.1469 24.7576 27.1817 24.7127 27.2258C24.6677 27.27 24.6321 27.3226 24.6077 27.3807C24.5834 27.4388 24.5708 27.5012 24.5708 27.5642V29.8544C24.573 29.981 24.6248 30.1016 24.715 30.1903C24.8053 30.2791 24.9268 30.3288 25.0534 30.3288H26.9919C27.1171 30.3267 27.2365 30.276 27.325 30.1875C27.4135 30.099 27.4642 29.9796 27.4663 29.8544V27.5642C27.4723 27.4964 27.4636 27.4282 27.4409 27.364C27.4181 27.2999 27.3819 27.2415 27.3345 27.1926C27.2872 27.1437 27.2299 27.1056 27.1666 27.0808C27.1032 27.056 27.0353 27.0451 26.9674 27.0489L26.9919 27.0898ZM26.9919 27.0898H25.0534C24.9904 27.0887 24.9279 27.1002 24.8694 27.1235C24.8108 27.1469 24.7576 27.1817 24.7127 27.2258C24.6677 27.27 24.6321 27.3226 24.6077 27.3807C24.5834 27.4388 24.5708 27.5012 24.5708 27.5642V29.8544C24.573 29.981 24.6248 30.1016 24.715 30.1903C24.8053 30.2791 24.9268 30.3288 25.0534 30.3288H26.9919C27.1171 30.3267 27.2365 30.276 27.325 30.1875C27.4135 30.099 27.4642 29.9796 27.4663 29.8544V27.5642C27.4723 27.4964 27.4636 27.4282 27.4409 27.364C27.4181 27.2999 27.3819 27.2415 27.3345 27.1926C27.2872 27.1437 27.2299 27.1056 27.1666 27.0808C27.1032 27.056 27.0353 27.0451 26.9674 27.0489L26.9919 27.0898ZM19.1725 19.6875H16.7187V22.9593H19.1725C19.2344 22.9603 19.2959 22.9491 19.3534 22.9261C19.4109 22.9032 19.4633 22.869 19.5075 22.8256C19.5516 22.7822 19.5867 22.7305 19.6106 22.6734C19.6346 22.6162 19.6469 22.555 19.6469 22.493V20.1865C19.6502 20.1221 19.6404 20.0578 19.6181 19.9974C19.5957 19.937 19.5613 19.8817 19.5169 19.8351C19.4725 19.7884 19.4191 19.7512 19.3599 19.7259C19.3007 19.7005 19.2369 19.6875 19.1725 19.6875ZM19.1725 19.6875H16.7187V22.9593H19.1725C19.2344 22.9603 19.2959 22.9491 19.3534 22.9261C19.4109 22.9032 19.4633 22.869 19.5075 22.8256C19.5516 22.7822 19.5867 22.7305 19.6106 22.6734C19.6346 22.6162 19.6469 22.555 19.6469 22.493V20.1865C19.6502 20.1221 19.6404 20.0578 19.6181 19.9974C19.5957 19.937 19.5613 19.8817 19.5169 19.8351C19.4725 19.7884 19.4191 19.7512 19.3599 19.7259C19.3007 19.7005 19.2369 19.6875 19.1725 19.6875ZM26.9919 27.0898H25.0534C24.9904 27.0887 24.9279 27.1002 24.8694 27.1235C24.8108 27.1469 24.7576 27.1817 24.7127 27.2258C24.6677 27.27 24.6321 27.3226 24.6077 27.3807C24.5834 27.4388 24.5708 27.5012 24.5708 27.5642V29.8544C24.573 29.981 24.6248 30.1016 24.715 30.1903C24.8053 30.2791 24.9268 30.3288 25.0534 30.3288H26.9919C27.1171 30.3267 27.2365 30.276 27.325 30.1875C27.4135 30.099 27.4642 29.9796 27.4663 29.8544V27.5642C27.4723 27.4964 27.4636 27.4282 27.4409 27.364C27.4181 27.2999 27.3819 27.2415 27.3345 27.1926C27.2872 27.1437 27.2299 27.1056 27.1666 27.0808C27.1032 27.056 27.0353 27.0451 26.9674 27.0489L26.9919 27.0898ZM26.9919 27.0898H25.0534C24.9904 27.0887 24.9279 27.1002 24.8694 27.1235C24.8108 27.1469 24.7576 27.1817 24.7127 27.2258C24.6677 27.27 24.6321 27.3226 24.6077 27.3807C24.5834 27.4388 24.5708 27.5012 24.5708 27.5642V29.8544C24.573 29.981 24.6248 30.1016 24.715 30.1903C24.8053 30.2791 24.9268 30.3288 25.0534 30.3288H26.9919C27.1171 30.3267 27.2365 30.276 27.325 30.1875C27.4135 30.099 27.4642 29.9796 27.4663 29.8544V27.5642C27.4723 27.4964 27.4636 27.4282 27.4409 27.364C27.4181 27.2999 27.3819 27.2415 27.3345 27.1926C27.2872 27.1437 27.2299 27.1056 27.1666 27.0808C27.1032 27.056 27.0353 27.0451 26.9674 27.0489L26.9919 27.0898ZM19.1725 19.6875H16.7187V22.9593H19.1725C19.2344 22.9603 19.2959 22.9491 19.3534 22.9261C19.4109 22.9032 19.4633 22.869 19.5075 22.8256C19.5516 22.7822 19.5867 22.7305 19.6106 22.6734C19.6346 22.6162 19.6469 22.555 19.6469 22.493V20.1865C19.6502 20.1221 19.6404 20.0578 19.6181 19.9974C19.5957 19.937 19.5613 19.8817 19.5169 19.8351C19.4725 19.7884 19.4191 19.7512 19.3599 19.7259C19.3007 19.7005 19.2369 19.6875 19.1725 19.6875ZM26.9919 27.0898H25.0534C24.9904 27.0887 24.9279 27.1002 24.8694 27.1235C24.8108 27.1469 24.7576 27.1817 24.7127 27.2258C24.6677 27.27 24.6321 27.3226 24.6077 27.3807C24.5834 27.4388 24.5708 27.5012 24.5708 27.5642V29.8544C24.573 29.981 24.6248 30.1016 24.715 30.1903C24.8053 30.2791 24.9268 30.3288 25.0534 30.3288H26.9919C27.1171 30.3267 27.2365 30.276 27.325 30.1875C27.4135 30.099 27.4642 29.9796 27.4663 29.8544V27.5642C27.4723 27.4964 27.4636 27.4282 27.4409 27.364C27.4181 27.2999 27.3819 27.2415 27.3345 27.1926C27.2872 27.1437 27.2299 27.1056 27.1666 27.0808C27.1032 27.056 27.0353 27.0451 26.9674 27.0489L26.9919 27.0898ZM26.9919 27.0898H25.0534C24.9904 27.0887 24.9279 27.1002 24.8694 27.1235C24.8108 27.1469 24.7576 27.1817 24.7127 27.2258C24.6677 27.27 24.6321 27.3226 24.6077 27.3807C24.5834 27.4388 24.5708 27.5012 24.5708 27.5642V29.8544C24.573 29.981 24.6248 30.1016 24.715 30.1903C24.8053 30.2791 24.9268 30.3288 25.0534 30.3288H26.9919C27.1171 30.3267 27.2365 30.276 27.325 30.1875C27.4135 30.099 27.4642 29.9796 27.4663 29.8544V27.5642C27.4723 27.4964 27.4636 27.4282 27.4409 27.364C27.4181 27.2999 27.3819 27.2415 27.3345 27.1926C27.2872 27.1437 27.2299 27.1056 27.1666 27.0808C27.1032 27.056 27.0353 27.0451 26.9674 27.0489L26.9919 27.0898Z" fill="url(#paint4_linear_4207_3675)"/>
<path d="M28.6441 43.0967C25.0589 43.0983 21.5538 42.0366 18.572 40.046C15.5902 38.0553 13.2658 35.2251 11.8927 31.9133C10.5196 28.6015 10.1595 24.9568 10.8579 21.4403C11.5563 17.9238 13.282 14.6934 15.8165 12.1577C18.3511 9.62206 21.5807 7.89497 25.0968 7.19493C28.613 6.4949 32.2579 6.85336 35.5703 8.22498C38.8827 9.5966 41.714 11.9198 43.706 14.9006C45.698 17.8815 46.7612 21.3862 46.7612 24.9714C46.7569 29.7757 44.847 34.3822 41.4506 37.7802C38.0541 41.1782 33.4485 43.0902 28.6441 43.0967ZM34.615 31.3594H38.6474C39.0646 31.3572 39.4641 31.19 39.7583 30.8941C40.0526 30.5983 40.2178 30.198 40.2178 29.7808V27.5724C40.2156 27.1544 40.0487 26.7541 39.7531 26.4585C39.4575 26.1629 39.0572 25.9959 38.6392 25.9938H34.615V31.3594ZM29.323 30.8277C29.323 30.9687 29.379 31.104 29.4787 31.2037C29.5784 31.3034 29.7136 31.3594 29.8546 31.3594H34.0915V30.1243H30.8198V26.0347H29.2984L29.323 30.8277ZM24.7671 25.9938C24.3491 25.9959 23.9488 26.1629 23.6533 26.4585C23.3577 26.7541 23.1907 27.1544 23.1885 27.5724V29.7808C23.1907 30.1988 23.3577 30.5991 23.6533 30.8946C23.9488 31.1902 24.3491 31.3572 24.7671 31.3594H27.2209C27.6382 31.3572 28.0376 31.19 28.3319 30.8941C28.6261 30.5983 28.7913 30.198 28.7913 29.7808V27.5724C28.7913 27.1551 28.6261 26.7548 28.3319 26.459C28.0376 26.1632 27.6382 25.9959 27.2209 25.9938H24.7671ZM18.6327 25.9938C18.2154 25.9959 17.816 26.1632 17.5217 26.459C17.2274 26.7548 17.0622 27.1551 17.0622 27.5724V29.7808C17.0622 30.198 17.2274 30.5983 17.5217 30.8941C17.816 31.19 18.2154 31.3572 18.6327 31.3594H22.665V28.5294C22.6651 28.4653 22.6523 28.4019 22.6275 28.3428C22.6028 28.2837 22.5665 28.2301 22.5208 28.1852C22.4751 28.1403 22.421 28.1049 22.3615 28.0811C22.302 28.0574 22.2383 28.0457 22.1743 28.0468H19.7205V29.2737H21.1682V30.0916H18.9271C18.8447 30.0916 18.7656 30.0589 18.7073 30.0006C18.649 29.9423 18.6163 29.8632 18.6163 29.7808V27.4988C18.6163 27.4163 18.649 27.3373 18.7073 27.279C18.7656 27.2207 18.8447 27.188 18.9271 27.188H22.6978V25.9611L18.6327 25.9938ZM40.3896 23.9489H41.9109V20.1619C41.9109 19.7454 41.7455 19.346 41.4509 19.0515C41.1564 18.757 40.757 18.5915 40.3405 18.5915H37.8867C37.4702 18.5915 37.0708 18.757 36.7762 19.0515C36.4817 19.346 36.3163 19.7454 36.3163 20.1619V23.9489H37.8376V22.3131H40.3896V23.9489ZM33.8952 23.9489H35.4166V18.5915H33.8952V23.9489ZM31.4414 23.9489H33.4862L30.509 21.2089L33.3717 18.5915H31.3269L29.1349 20.6854V18.5915H27.6135V23.9489H29.1349V21.7406L31.4414 23.9489ZM21.5036 22.3785C21.5036 22.795 21.669 23.1945 21.9636 23.489C22.2581 23.7835 22.6575 23.9489 23.074 23.9489H25.5278C25.9451 23.9489 26.3453 23.7838 26.6412 23.4895C26.937 23.1952 27.1042 22.7958 27.1064 22.3785V18.5915H25.5523V22.4112C25.5534 22.4517 25.5464 22.4919 25.5317 22.5296C25.517 22.5672 25.4949 22.6016 25.4666 22.6305C25.4384 22.6595 25.4047 22.6825 25.3674 22.6983C25.3302 22.714 25.2901 22.7221 25.2497 22.7221H23.303C23.222 22.7199 23.1451 22.6862 23.0885 22.6282C23.032 22.5701 23.0004 22.4923 23.0004 22.4112V18.5915H21.4791L21.5036 22.3785ZM15.3855 23.9489H19.4179C19.6252 23.9489 19.8305 23.9081 20.022 23.8288C20.2135 23.7494 20.3875 23.6332 20.5341 23.4866C20.6807 23.34 20.797 23.166 20.8763 22.9745C20.9556 22.7829 20.9965 22.5777 20.9965 22.3703V20.1701C20.9943 19.7521 20.8273 19.3518 20.5317 19.0562C20.2362 18.7607 19.8359 18.5937 19.4179 18.5915H15.3855V23.9489ZM36.1609 30.1243V27.2288H38.4265C38.5046 27.2288 38.5795 27.2599 38.6347 27.3151C38.69 27.3703 38.721 27.4452 38.721 27.5233V29.8217C38.7221 29.861 38.7153 29.9002 38.701 29.9369C38.6867 29.9736 38.6651 30.007 38.6377 30.0352C38.6102 30.0634 38.5774 30.0858 38.5411 30.1011C38.5049 30.1164 38.4659 30.1243 38.4265 30.1243H36.1609ZM25.0534 30.1243C24.9724 30.1243 24.8945 30.0927 24.8365 30.0362C24.7784 29.9797 24.7447 29.9027 24.7426 29.8217V27.5315C24.7426 27.491 24.7507 27.451 24.7664 27.4137C24.7821 27.3765 24.8051 27.3427 24.8341 27.3145C24.8631 27.2863 24.8974 27.2642 24.9351 27.2495C24.9727 27.2348 25.013 27.2278 25.0534 27.2288H26.9919C27.0729 27.2288 27.1508 27.2604 27.2088 27.317C27.2669 27.3735 27.3006 27.4505 27.3027 27.5315V29.8217C27.3006 29.9027 27.2669 29.9797 27.2088 30.0362C27.1508 30.0927 27.0729 30.1243 26.9919 30.1243H25.0534ZM16.8741 22.7221V19.8266H19.1725C19.2514 19.8266 19.3271 19.8573 19.3836 19.9123C19.4402 19.9673 19.473 20.0422 19.4751 20.121V22.4276C19.4751 22.467 19.4673 22.5059 19.452 22.5422C19.4367 22.5785 19.4142 22.6113 19.386 22.6388C19.3578 22.6662 19.3244 22.6877 19.2877 22.702C19.251 22.7163 19.2118 22.7231 19.1725 22.7221H16.8741ZM37.8213 21.0862V20.1129C37.8213 20.0724 37.8293 20.0324 37.8451 19.9951C37.8608 19.9579 37.8838 19.9241 37.9128 19.8959C37.9418 19.8677 37.9761 19.8456 38.0138 19.8309C38.0514 19.8162 38.0917 19.8091 38.1321 19.8102H40.0624C40.1434 19.8102 40.2213 19.8418 40.2793 19.8984C40.3374 19.9549 40.3711 20.0318 40.3732 20.1129V21.0862H37.8213Z" fill="url(#paint5_linear_4207_3675)"/>
<path style="mix-blend-mode:soft-light" opacity="0.25" d="M40.0788 19.8266H38.1485C38.1077 19.8255 38.067 19.8325 38.0289 19.8471C37.9908 19.8617 37.9559 19.8837 37.9263 19.9118C37.8967 19.9399 37.8729 19.9736 37.8563 20.0109C37.8397 20.0482 37.8306 20.0884 37.8295 20.1293V21.1026H40.4387V20.1293C40.4368 20.0851 40.4257 20.0418 40.4062 20.0021C40.3867 19.9624 40.3591 19.9272 40.3253 19.8988C40.2915 19.8703 40.2521 19.8492 40.2096 19.8368C40.1672 19.8244 40.1227 19.8209 40.0788 19.8266ZM40.0788 19.8266H38.1485C38.1077 19.8255 38.067 19.8325 38.0289 19.8471C37.9908 19.8617 37.9559 19.8837 37.9263 19.9118C37.8967 19.9399 37.8729 19.9736 37.8563 20.0109C37.8397 20.0482 37.8306 20.0884 37.8295 20.1293V21.1026H40.4387V20.1293C40.4368 20.0851 40.4257 20.0418 40.4062 20.0021C40.3867 19.9624 40.3591 19.9272 40.3253 19.8988C40.2915 19.8703 40.2521 19.8492 40.2096 19.8368C40.1672 19.8244 40.1227 19.8209 40.0788 19.8266ZM40.0788 19.8266H38.1485C38.1077 19.8255 38.067 19.8325 38.0289 19.8471C37.9908 19.8617 37.9559 19.8837 37.9263 19.9118C37.8967 19.9399 37.8729 19.9736 37.8563 20.0109C37.8397 20.0482 37.8306 20.0884 37.8295 20.1293V21.1026H40.4387V20.1293C40.4368 20.0851 40.4257 20.0418 40.4062 20.0021C40.3867 19.9624 40.3591 19.9272 40.3253 19.8988C40.2915 19.8703 40.2521 19.8492 40.2096 19.8368C40.1672 19.8244 40.1227 19.8209 40.0788 19.8266ZM40.0788 19.8266H38.1485C38.1077 19.8255 38.067 19.8325 38.0289 19.8471C37.9908 19.8617 37.9559 19.8837 37.9263 19.9118C37.8967 19.9399 37.8729 19.9736 37.8563 20.0109C37.8397 20.0482 37.8306 20.0884 37.8295 20.1293V21.1026H40.4387V20.1293C40.4368 20.0851 40.4257 20.0418 40.4062 20.0021C40.3867 19.9624 40.3591 19.9272 40.3253 19.8988C40.2915 19.8703 40.2521 19.8492 40.2096 19.8368C40.1672 19.8244 40.1227 19.8209 40.0788 19.8266ZM28.6278 6.84608C25.5055 6.84121 22.4348 7.64188 19.7124 9.17071C16.99 10.6995 14.7081 12.9048 13.0872 15.5734L18.1011 18.5997H19.3361C19.5424 18.5997 19.7466 18.6404 19.9371 18.7193C20.1276 18.7982 20.3008 18.9139 20.4466 19.0597C20.5924 19.2055 20.7081 19.3786 20.787 19.5692C20.8659 19.7597 20.9066 19.9639 20.9066 20.1701V20.2847L21.4219 20.5955V18.5997H22.9432V21.5116L24.9471 22.7221H25.1925C25.2329 22.7221 25.273 22.714 25.3102 22.6983C25.3475 22.6826 25.3812 22.6595 25.4094 22.6306C25.4377 22.6016 25.4598 22.5673 25.4745 22.5296C25.4892 22.4919 25.4962 22.4517 25.4951 22.4113V18.5997H27.0247V22.3786C27.0247 22.617 26.9702 22.8522 26.8653 23.0663C26.7604 23.2804 26.6078 23.4676 26.4194 23.6136L30.3782 25.9938H30.7871V26.2392L34.566 28.5212V26.002H38.582C38.7889 26.0009 38.994 26.0407 39.1855 26.1192C39.377 26.1976 39.5511 26.3131 39.6977 26.459C39.8444 26.605 39.9608 26.7785 40.0403 26.9695C40.1197 27.1606 40.1606 27.3655 40.1606 27.5724V29.7808C40.1594 30.1052 40.0582 30.4214 39.8709 30.6863C39.6836 30.9512 39.4192 31.152 39.1137 31.2613L44.1276 34.2794C45.776 31.53 46.6654 28.3923 46.705 25.1868C46.7446 21.9813 45.9329 18.8227 44.3528 16.0334C42.7727 13.2441 40.4807 10.924 37.7109 9.30992C34.9412 7.69587 31.7927 6.84566 28.5869 6.84608H28.6278ZM31.4415 23.949L29.1267 21.7406V23.949H27.6136V18.5997H29.1267V20.6854L31.3352 18.5997H33.3718L30.509 21.2089L33.4863 23.949H31.4415ZM35.4412 23.949H33.8953V18.5997H35.4166L35.4412 23.949ZM41.9355 23.949H40.4387V22.3131H37.8704V23.949H36.3491V20.162C36.3512 19.7469 36.5176 19.3495 36.8119 19.0568C37.1062 18.7641 37.5044 18.5997 37.9195 18.5997H40.3733C40.7883 18.5997 41.1866 18.7641 41.4808 19.0568C41.7751 19.3495 41.9415 19.7469 41.9437 20.162L41.9355 23.949ZM40.1033 19.8593H38.1485C38.1077 19.8582 38.067 19.8652 38.0289 19.8798C37.9908 19.8945 37.9559 19.9164 37.9263 19.9445C37.8967 19.9726 37.8729 20.0063 37.8563 20.0436C37.8397 20.0809 37.8306 20.1211 37.8295 20.162V21.1353H40.4387V20.162C40.4415 20.115 40.4339 20.0681 40.4165 20.0244C40.399 19.9808 40.3721 19.9416 40.3377 19.9095C40.3034 19.8775 40.2623 19.8534 40.2176 19.8391C40.1728 19.8248 40.1254 19.8205 40.0788 19.8266L40.1033 19.8593ZM40.1033 19.8593H38.1485C38.1077 19.8582 38.067 19.8652 38.0289 19.8798C37.9908 19.8945 37.9559 19.9164 37.9263 19.9445C37.8967 19.9726 37.8729 20.0063 37.8563 20.0436C37.8397 20.0809 37.8306 20.1211 37.8295 20.162V21.1353H40.4387V20.162C40.4415 20.115 40.4339 20.0681 40.4165 20.0244C40.399 19.9808 40.3721 19.9416 40.3377 19.9095C40.3034 19.8775 40.2623 19.8534 40.2176 19.8391C40.1728 19.8248 40.1254 19.8205 40.0788 19.8266L40.1033 19.8593ZM40.1033 19.8593H38.1485C38.1077 19.8582 38.067 19.8652 38.0289 19.8798C37.9908 19.8945 37.9559 19.9164 37.9263 19.9445C37.8967 19.9726 37.8729 20.0063 37.8563 20.0436C37.8397 20.0809 37.8306 20.1211 37.8295 20.162V21.1353H40.4387V20.162C40.4415 20.115 40.4339 20.0681 40.4165 20.0244C40.399 19.9808 40.3721 19.9416 40.3377 19.9095C40.3034 19.8775 40.2623 19.8534 40.2176 19.8391C40.1728 19.8248 40.1254 19.8205 40.0788 19.8266L40.1033 19.8593Z" fill="url(#paint6_linear_4207_3675)"/>
<path style="mix-blend-mode:soft-light" opacity="0.25" d="M19.1725 19.8266H16.915V22.7221H19.1725C19.2119 22.7232 19.251 22.7164 19.2877 22.7021C19.3244 22.6878 19.3578 22.6662 19.386 22.6388C19.4142 22.6113 19.4367 22.5785 19.452 22.5422C19.4673 22.506 19.4752 22.467 19.4751 22.4276V20.1211C19.473 20.0422 19.4402 19.9673 19.3837 19.9123C19.3271 19.8573 19.2514 19.8266 19.1725 19.8266ZM26.9919 27.2289H25.0534C25.013 27.2278 24.9728 27.2348 24.9351 27.2495C24.8974 27.2642 24.8631 27.2864 24.8341 27.3146C24.8051 27.3428 24.7821 27.3765 24.7664 27.4138C24.7507 27.451 24.7426 27.4911 24.7426 27.5315V29.8217C24.7447 29.9027 24.7784 29.9797 24.8365 30.0362C24.8945 30.0927 24.9724 30.1244 25.0534 30.1243H26.9919C27.0729 30.1244 27.1508 30.0927 27.2088 30.0362C27.2669 29.9797 27.3006 29.9027 27.3027 29.8217V27.5315C27.3017 27.4892 27.2922 27.4476 27.2745 27.4092C27.2569 27.3707 27.2316 27.3363 27.2002 27.308C27.1688 27.2796 27.132 27.258 27.092 27.2444C27.0519 27.2308 27.0095 27.2255 26.9674 27.2289H26.9919ZM19.1725 19.8266H16.915V22.7221H19.1725C19.2119 22.7232 19.251 22.7164 19.2877 22.7021C19.3244 22.6878 19.3578 22.6662 19.386 22.6388C19.4142 22.6113 19.4367 22.5785 19.452 22.5422C19.4673 22.506 19.4752 22.467 19.4751 22.4276V20.1211C19.473 20.0422 19.4402 19.9673 19.3837 19.9123C19.3271 19.8573 19.2514 19.8266 19.1725 19.8266ZM26.9919 27.2289H25.0534C25.013 27.2278 24.9728 27.2348 24.9351 27.2495C24.8974 27.2642 24.8631 27.2864 24.8341 27.3146C24.8051 27.3428 24.7821 27.3765 24.7664 27.4138C24.7507 27.451 24.7426 27.4911 24.7426 27.5315V29.8217C24.7447 29.9027 24.7784 29.9797 24.8365 30.0362C24.8945 30.0927 24.9724 30.1244 25.0534 30.1243H26.9919C27.0729 30.1244 27.1508 30.0927 27.2088 30.0362C27.2669 29.9797 27.3006 29.9027 27.3027 29.8217V27.5315C27.3017 27.4892 27.2922 27.4476 27.2745 27.4092C27.2569 27.3707 27.2316 27.3363 27.2002 27.308C27.1688 27.2796 27.132 27.258 27.092 27.2444C27.0519 27.2308 27.0095 27.2255 26.9674 27.2289H26.9919ZM39.1954 31.2613C39.0282 31.3242 38.8506 31.3548 38.6719 31.3512H34.6477V28.5212L30.8444 26.231V30.1162H34.1161V31.3431H29.8874C29.8183 31.3442 29.7498 31.3314 29.6858 31.3055C29.6217 31.2795 29.5636 31.241 29.5148 31.1922C29.4659 31.1434 29.4274 31.0852 29.4015 31.0212C29.3756 30.9572 29.3628 30.8886 29.3639 30.8196V25.9856H30.4681L26.5093 23.6055C26.2321 23.824 25.889 23.9422 25.536 23.9408H23.0822C22.876 23.9408 22.6718 23.9002 22.4812 23.8213C22.2907 23.7423 22.1176 23.6266 21.9718 23.4808C21.8259 23.335 21.7102 23.1619 21.6313 22.9713C21.5524 22.7808 21.5118 22.5766 21.5118 22.3704V20.5873L20.9965 20.2765V22.3622C20.9976 22.5691 20.9577 22.7742 20.8793 22.9657C20.8009 23.1572 20.6854 23.3313 20.5394 23.478C20.3935 23.6246 20.22 23.741 20.0289 23.8205C19.8379 23.8999 19.633 23.9408 19.4261 23.9408H15.4019V18.5915H18.191L13.1771 15.5652C10.6965 19.6868 9.95486 24.6251 11.1153 29.2935C12.2757 33.962 15.2431 37.9783 19.3647 40.4589C23.4864 42.9394 28.4246 43.6811 33.0931 42.5207C37.7615 41.3603 41.7778 38.3929 44.2584 34.2712L39.1954 31.2613ZM22.6896 27.2207H18.919C18.8358 27.2207 18.7558 27.2532 18.6962 27.3112C18.6366 27.3693 18.6021 27.4483 18.6 27.5315V29.8135C18.6021 29.8967 18.6366 29.9757 18.6962 30.0338C18.7558 30.0919 18.8358 30.1244 18.919 30.1243H21.1683V29.3064H19.7205V28.0795H22.1743C22.2384 28.0784 22.302 28.0901 22.3615 28.1139C22.421 28.1376 22.4752 28.173 22.5208 28.2179C22.5665 28.2629 22.6028 28.3164 22.6276 28.3755C22.6523 28.4346 22.6651 28.498 22.6651 28.5621V31.3839H18.6327C18.2162 31.3839 17.8167 31.2185 17.5222 30.924C17.2277 30.6295 17.0623 30.23 17.0623 29.8135V27.6051C17.0623 27.1886 17.2277 26.7892 17.5222 26.4947C17.8167 26.2002 18.2162 26.0347 18.6327 26.0347H22.6651L22.6896 27.2207ZM28.8159 29.7808C28.8159 30.1973 28.6504 30.5967 28.3559 30.8913C28.0614 31.1858 27.662 31.3512 27.2455 31.3512H24.7917C24.3744 31.3512 23.9741 31.186 23.6783 30.8918C23.3825 30.5975 23.2152 30.1981 23.2131 29.7808V27.5724C23.2152 27.1552 23.3825 26.7557 23.6783 26.4614C23.9741 26.1672 24.3744 26.002 24.7917 26.002H27.2455C27.662 26.002 28.0614 26.1674 28.3559 26.4619C28.6504 26.7565 28.8159 27.1559 28.8159 27.5724V29.7808ZM26.9919 27.2289H25.0534C25.013 27.2278 24.9728 27.2348 24.9351 27.2495C24.8974 27.2642 24.8631 27.2864 24.8341 27.3146C24.8051 27.3428 24.7821 27.3765 24.7664 27.4138C24.7507 27.451 24.7426 27.4911 24.7426 27.5315V29.8217C24.7447 29.9027 24.7784 29.9797 24.8365 30.0362C24.8945 30.0927 24.9724 30.1244 25.0534 30.1243H26.9919C27.0729 30.1244 27.1508 30.0927 27.2088 30.0362C27.2669 29.9797 27.3006 29.9027 27.3027 29.8217V27.5315C27.3017 27.4892 27.2922 27.4476 27.2745 27.4092C27.2569 27.3707 27.2316 27.3363 27.2002 27.308C27.1688 27.2796 27.132 27.258 27.092 27.2444C27.0519 27.2308 27.0095 27.2255 26.9674 27.2289H26.9919ZM23.3276 22.7221H25.0289L23.025 21.5116V22.4113C23.0245 22.4883 23.0527 22.5628 23.1041 22.6202C23.1555 22.6777 23.2264 22.714 23.3031 22.7221H23.3276ZM16.915 22.7221H19.1725C19.2119 22.7232 19.251 22.7164 19.2877 22.7021C19.3244 22.6878 19.3578 22.6662 19.386 22.6388C19.4142 22.6113 19.4367 22.5785 19.452 22.5422C19.4673 22.506 19.4752 22.467 19.4751 22.4276V20.1211C19.473 20.0422 19.4402 19.9673 19.3837 19.9123C19.3271 19.8573 19.2514 19.8266 19.1725 19.8266H16.915V22.7221Z" fill="url(#paint7_linear_4207_3675)"/>
<path style="mix-blend-mode:soft-light" opacity="0.5" d="M40.0788 19.8266H38.1485C38.1076 19.8255 38.067 19.8325 38.0289 19.8471C37.9907 19.8617 37.9559 19.8837 37.9262 19.9118C37.8966 19.9399 37.8728 19.9736 37.8562 20.0109C37.8396 20.0482 37.8305 20.0884 37.8295 20.1292V21.1026H40.4387V20.1292C40.4368 20.0851 40.4257 20.0418 40.4062 20.0021C40.3867 19.9624 40.3591 19.9272 40.3253 19.8988C40.2914 19.8703 40.252 19.8492 40.2096 19.8368C40.1672 19.8244 40.1226 19.8209 40.0788 19.8266ZM38.402 27.2289H36.1364V29.4373L37.2814 30.1243H38.402C38.4808 30.1222 38.5557 30.0894 38.6107 30.0329C38.6657 29.9763 38.6965 29.9006 38.6965 29.8217V27.5233C38.6965 27.4452 38.6654 27.3703 38.6102 27.3151C38.555 27.2599 38.4801 27.2289 38.402 27.2289ZM40.0788 19.8266H38.1485C38.1076 19.8255 38.067 19.8325 38.0289 19.8471C37.9907 19.8617 37.9559 19.8837 37.9262 19.9118C37.8966 19.9399 37.8728 19.9736 37.8562 20.0109C37.8396 20.0482 37.8305 20.0884 37.8295 20.1292V21.1026H40.4387V20.1292C40.4368 20.0851 40.4257 20.0418 40.4062 20.0021C40.3867 19.9624 40.3591 19.9272 40.3253 19.8988C40.2914 19.8703 40.252 19.8492 40.2096 19.8368C40.1672 19.8244 40.1226 19.8209 40.0788 19.8266ZM38.402 27.2289H36.1364V29.4373L37.2814 30.1243H38.402C38.4808 30.1222 38.5557 30.0894 38.6107 30.0329C38.6657 29.9763 38.6965 29.9006 38.6965 29.8217V27.5233C38.6965 27.4452 38.6654 27.3703 38.6102 27.3151C38.555 27.2599 38.4801 27.2289 38.402 27.2289ZM40.0788 19.8266H38.1485C38.1076 19.8255 38.067 19.8325 38.0289 19.8471C37.9907 19.8617 37.9559 19.8837 37.9262 19.9118C37.8966 19.9399 37.8728 19.9736 37.8562 20.0109C37.8396 20.0482 37.8305 20.0884 37.8295 20.1292V21.1026H40.4387V20.1292C40.4368 20.0851 40.4257 20.0418 40.4062 20.0021C40.3867 19.9624 40.3591 19.9272 40.3253 19.8988C40.2914 19.8703 40.252 19.8492 40.2096 19.8368C40.1672 19.8244 40.1226 19.8209 40.0788 19.8266ZM38.402 27.2289H36.1364V29.4373L37.2814 30.1243H38.402C38.4808 30.1222 38.5557 30.0894 38.6107 30.0329C38.6657 29.9763 38.6965 29.9006 38.6965 29.8217V27.5233C38.6965 27.4452 38.6654 27.3703 38.6102 27.3151C38.555 27.2599 38.4801 27.2289 38.402 27.2289Z" fill="url(#paint8_linear_4207_3675)"/>
<defs>
<linearGradient id="paint0_linear_4207_3675" x1="175.16" y1="2.07755" x2="173.867" y2="2.07755" gradientUnits="userSpaceOnUse">
<stop stop-color="white"/>
<stop offset="1" stop-color="white" stop-opacity="0"/>
</linearGradient>
<linearGradient id="paint1_linear_4207_3675" x1="28.6441" y1="49.9509" x2="28.6441" y2="5.95461e-06" gradientUnits="userSpaceOnUse">
<stop stop-color="#26377C"/>
<stop offset="1" stop-color="#202A50"/>
</linearGradient>
<linearGradient id="paint2_linear_4207_3675" x1="28.6441" y1="0.343567" x2="28.6441" y2="49.6074" gradientUnits="userSpaceOnUse">
<stop stop-color="#242D5C"/>
<stop offset="1" stop-color="#202A50"/>
</linearGradient>
<linearGradient id="paint3_linear_4207_3675" x1="35.5884" y1="29.6336" x2="39.0155" y2="27.6542" gradientUnits="userSpaceOnUse">
<stop stop-color="#9A7724"/>
<stop offset="0.23" stop-color="#C9A148"/>
<stop offset="0.41" stop-color="#F5E28A"/>
<stop offset="0.59" stop-color="#F4CE79"/>
<stop offset="0.85" stop-color="#B0883D"/>
<stop offset="1" stop-color="#906722"/>
</linearGradient>
<linearGradient id="paint4_linear_4207_3675" x1="12.7927" y1="34.124" x2="44.4874" y2="15.8269" gradientUnits="userSpaceOnUse">
<stop stop-color="#9A7724"/>
<stop offset="0.23" stop-color="#C9A148"/>
<stop offset="0.41" stop-color="#F5E28A"/>
<stop offset="0.59" stop-color="#F4CE79"/>
<stop offset="0.85" stop-color="#B0883D"/>
<stop offset="1" stop-color="#906722"/>
</linearGradient>
<linearGradient id="paint5_linear_4207_3675" x1="12.9481" y1="15.9169" x2="44.332" y2="34.034" gradientUnits="userSpaceOnUse">
<stop stop-color="#9A7724"/>
<stop offset="0.23" stop-color="#C9A148"/>
<stop offset="0.41" stop-color="#F5E28A"/>
<stop offset="0.59" stop-color="#F4CE79"/>
<stop offset="0.85" stop-color="#B0883D"/>
<stop offset="1" stop-color="#906722"/>
</linearGradient>
<linearGradient id="paint6_linear_4207_3675" x1="46.7613" y1="20.5627" x2="13.1444" y2="20.5627" gradientUnits="userSpaceOnUse">
<stop stop-color="white"/>
<stop offset="1" stop-color="white" stop-opacity="0"/>
</linearGradient>
<linearGradient id="paint7_linear_4207_3675" x1="10.5106" y1="29.3391" x2="44.1848" y2="29.3391" gradientUnits="userSpaceOnUse">
<stop stop-color="white"/>
<stop offset="1" stop-color="white" stop-opacity="0"/>
</linearGradient>
<linearGradient id="paint8_linear_4207_3675" x1="36.1364" y1="24.9714" x2="40.3978" y2="24.9714" gradientUnits="userSpaceOnUse">
<stop stop-color="white"/>
<stop offset="1" stop-color="white" stop-opacity="0"/>
</linearGradient>
</defs>
</svg>
