<svg width="49" height="49" viewBox="0 0 49 49" fill="none" xmlns="http://www.w3.org/2000/svg">
<g clip-path="url(#clip0_4030_1729)">
<path d="M6.5 1.5H42.5M6.5 47.5H42.5M11.5 47.5V35.5L17.212 32.072C18.5197 31.2875 19.6019 30.1778 20.3533 28.8508C21.1046 27.5239 21.4996 26.0249 21.4996 24.5C21.4996 22.9751 21.1046 21.4761 20.3533 20.1492C19.6019 18.8222 18.5197 17.7125 17.212 16.928L11.5 13.5V1.5M37.5 1.5V13.5L31.788 16.928C30.4808 17.7128 29.3991 18.8227 28.6481 20.1496C27.897 21.4766 27.5023 22.9753 27.5023 24.5C27.5023 26.0247 27.897 27.5234 28.6481 28.8504C29.3991 30.1773 30.4808 31.2872 31.788 32.072L37.5 35.5V47.5" stroke="#111827" stroke-width="2" stroke-linejoin="round"/>
</g>
<defs>
<clipPath id="clip0_4030_1729">
<rect width="48" height="48" fill="white" transform="translate(0.5 0.5)"/>
</clipPath>
</defs>
</svg>
