<svg width="20" height="20" viewBox="0 0 20 20" fill="none" xmlns="http://www.w3.org/2000/svg">
<g clip-path="url(#clip0_395_3186)">
<path fill-rule="evenodd" clip-rule="evenodd" d="M6.91169 9.41071C6.75546 9.56698 6.6677 9.77891 6.6677 9.99988C6.6677 10.2208 6.75546 10.4328 6.91169 10.589L11.6259 15.3032C11.7027 15.3828 11.7947 15.4463 11.8963 15.49C11.998 15.5336 12.1074 15.5566 12.218 15.5576C12.3287 15.5585 12.4384 15.5375 12.5408 15.4956C12.6432 15.4537 12.7363 15.3918 12.8145 15.3135C12.8928 15.2353 12.9546 15.1423 12.9965 15.0398C13.0384 14.9374 13.0595 14.8277 13.0586 14.717C13.0576 14.6064 13.0346 14.497 12.9909 14.3954C12.9473 14.2937 12.8838 14.2017 12.8042 14.1249L8.67919 9.99988L12.8042 5.87488C12.956 5.71771 13.04 5.50721 13.0381 5.28871C13.0362 5.07021 12.9485 4.8612 12.794 4.70669C12.6395 4.55219 12.4305 4.46455 12.212 4.46265C11.9935 4.46075 11.783 4.54474 11.6259 4.69654L6.91169 9.41071Z" fill="#111827"/>
</g>
<defs>
<clipPath id="clip0_395_3186">
<rect width="20" height="20" fill="white" transform="matrix(0 -1 -1 0 20 20)"/>
</clipPath>
</defs>
</svg>
