<svg width="20" height="21" viewBox="0 0 20 21" fill="none" xmlns="http://www.w3.org/2000/svg">
<path d="M3.33333 11.6541H8.33333C8.79167 11.6541 9.16667 11.2791 9.16667 10.8208V4.15413C9.16667 3.6958 8.79167 3.3208 8.33333 3.3208H3.33333C2.875 3.3208 2.5 3.6958 2.5 4.15413V10.8208C2.5 11.2791 2.875 11.6541 3.33333 11.6541ZM3.33333 18.3208H8.33333C8.79167 18.3208 9.16667 17.9458 9.16667 17.4875V14.1541C9.16667 13.6958 8.79167 13.3208 8.33333 13.3208H3.33333C2.875 13.3208 2.5 13.6958 2.5 14.1541V17.4875C2.5 17.9458 2.875 18.3208 3.33333 18.3208ZM11.6667 18.3208H16.6667C17.125 18.3208 17.5 17.9458 17.5 17.4875V10.8208C17.5 10.3625 17.125 9.98747 16.6667 9.98747H11.6667C11.2083 9.98747 10.8333 10.3625 10.8333 10.8208V17.4875C10.8333 17.9458 11.2083 18.3208 11.6667 18.3208ZM10.8333 4.15413V7.48747C10.8333 7.9458 11.2083 8.3208 11.6667 8.3208H16.6667C17.125 8.3208 17.5 7.9458 17.5 7.48747V4.15413C17.5 3.6958 17.125 3.3208 16.6667 3.3208H11.6667C11.2083 3.3208 10.8333 3.6958 10.8333 4.15413Z" fill="#111827"/>
</svg>
