<svg width="17" height="17" viewBox="0 0 17 17" fill="none" xmlns="http://www.w3.org/2000/svg">
<path d="M8.5 2.65625C7.23915 2.65625 6.00661 3.03014 4.95824 3.73063C3.90988 4.43113 3.09278 5.42676 2.61027 6.59164C2.12776 7.75652 2.00152 9.03832 2.2475 10.275C2.49348 11.5116 3.10064 12.6475 3.9922 13.5391C4.88376 14.4306 6.01967 15.0378 7.2563 15.2838C8.49293 15.5297 9.77473 15.4035 10.9396 14.921C12.1045 14.4385 13.1001 13.6214 13.8006 12.573C14.5011 11.5246 14.875 10.2921 14.875 9.03125C14.8731 7.34109 14.2008 5.72071 13.0057 4.52558C11.8105 3.33045 10.1902 2.65818 8.5 2.65625ZM11.5321 6.75086L8.87586 9.40711C8.8265 9.45647 8.76791 9.49562 8.70342 9.52233C8.63893 9.54905 8.56981 9.5628 8.5 9.5628C8.4302 9.5628 8.36108 9.54905 8.29659 9.52233C8.2321 9.49562 8.1735 9.45647 8.12414 9.40711C8.07478 9.35775 8.03563 9.29915 8.00892 9.23466C7.98221 9.17017 7.96846 9.10105 7.96846 9.03125C7.96846 8.96145 7.98221 8.89233 8.00892 8.82784C8.03563 8.76335 8.07478 8.70475 8.12414 8.65539L10.7804 5.99914C10.8298 5.94978 10.8883 5.91063 10.9528 5.88392C11.0173 5.8572 11.0864 5.84345 11.1563 5.84345C11.2261 5.84345 11.2952 5.8572 11.3597 5.88392C11.4242 5.91063 11.4828 5.94978 11.5321 5.99914C11.5815 6.0485 11.6206 6.1071 11.6473 6.17159C11.674 6.23608 11.6878 6.3052 11.6878 6.375C11.6878 6.4448 11.674 6.51392 11.6473 6.57841C11.6206 6.6429 11.5815 6.7015 11.5321 6.75086ZM6.375 1.0625C6.375 0.921604 6.43097 0.786478 6.5306 0.68685C6.63023 0.587221 6.76536 0.53125 6.90625 0.53125H10.0938C10.2346 0.53125 10.3698 0.587221 10.4694 0.68685C10.569 0.786478 10.625 0.921604 10.625 1.0625C10.625 1.2034 10.569 1.33852 10.4694 1.43815C10.3698 1.53778 10.2346 1.59375 10.0938 1.59375H6.90625C6.76536 1.59375 6.63023 1.53778 6.5306 1.43815C6.43097 1.33852 6.375 1.2034 6.375 1.0625Z" fill="#1C254E"/>
</svg>
