<svg width="20" height="21" viewBox="0 0 20 21" fill="none" xmlns="http://www.w3.org/2000/svg">
<path fill-rule="evenodd" clip-rule="evenodd" d="M11.8994 2.61397C11.5911 2.4873 11.1994 2.4873 10.4169 2.4873C9.63443 2.4873 9.2436 2.4873 8.93443 2.61397C8.52397 2.78248 8.19725 3.10711 8.0261 3.51647C7.94776 3.7023 7.91776 3.9198 7.90526 4.23564C7.89971 4.46447 7.83587 4.68811 7.7198 4.8854C7.60373 5.0827 7.43926 5.24712 7.24193 5.36314C7.04088 5.47489 6.81488 5.53409 6.58487 5.53526C6.35485 5.53642 6.12826 5.47951 5.9261 5.3698C5.64443 5.22147 5.44026 5.1398 5.2386 5.11314C4.79739 5.05521 4.35116 5.1738 3.99693 5.44314C3.73193 5.6448 3.5361 5.98147 3.14526 6.65397C2.7536 7.32647 2.5586 7.6623 2.51443 7.99147C2.4561 8.4298 2.5761 8.87314 2.84776 9.22397C2.9711 9.38397 3.14526 9.51814 3.41443 9.68647C3.81193 9.93397 4.06693 10.3556 4.06693 10.8206C4.06693 11.2856 3.81193 11.7073 3.41526 11.954C3.14526 12.1231 2.9711 12.2573 2.84693 12.4173C2.71283 12.5906 2.6144 12.7887 2.55733 13.0003C2.50026 13.2118 2.48568 13.4326 2.51443 13.6498C2.5586 13.9781 2.7536 14.3148 3.14526 14.9873C3.53693 15.6598 3.73193 15.9956 3.99693 16.1981C4.35026 16.4673 4.79693 16.5856 5.2386 16.5281C5.44026 16.5015 5.64443 16.4198 5.9261 16.2715C6.12837 16.1616 6.35511 16.1046 6.58529 16.1058C6.81546 16.107 7.04161 16.1662 7.24276 16.2781C7.64776 16.5115 7.88776 16.9406 7.90526 17.4056C7.91776 17.7223 7.94776 17.939 8.0261 18.1248C8.1961 18.5331 8.52276 18.8581 8.93443 19.0273C9.24276 19.154 9.63443 19.154 10.4169 19.154C11.1994 19.154 11.5911 19.154 11.8994 19.0273C12.3099 18.8588 12.6366 18.5342 12.8078 18.1248C12.8861 17.939 12.9161 17.7223 12.9286 17.4056C12.9453 16.9406 13.1861 16.5106 13.5919 16.2781C13.793 16.1664 14.019 16.1072 14.249 16.106C14.479 16.1049 14.7056 16.1618 14.9078 16.2715C15.1894 16.4198 15.3936 16.5015 15.5953 16.5281C16.0369 16.5865 16.4836 16.4673 16.8369 16.1981C17.1019 15.9965 17.2978 15.6598 17.6886 14.9873C18.0803 14.3148 18.2753 13.979 18.3194 13.6498C18.3481 13.4325 18.3333 13.2117 18.2761 13.0002C18.2189 12.7886 18.1203 12.5905 17.9861 12.4173C17.8628 12.2573 17.6886 12.1231 17.4194 11.9548C17.0219 11.7073 16.7669 11.2856 16.7669 10.8206C16.7669 10.3556 17.0219 9.93397 17.4186 9.68731C17.6886 9.51814 17.8628 9.38397 17.9869 9.22397C18.121 9.05069 18.2195 8.85255 18.2765 8.641C18.3336 8.42945 18.3482 8.20869 18.3194 7.99147C18.2753 7.66314 18.0803 7.32647 17.6886 6.65397C17.2969 5.98147 17.1019 5.64564 16.8369 5.44314C16.4827 5.1738 16.0365 5.05521 15.5953 5.11314C15.3936 5.1398 15.1894 5.22147 14.9078 5.3698C14.7055 5.47966 14.4787 5.53665 14.2486 5.53549C14.0184 5.53432 13.7922 5.47504 13.5911 5.36314C13.3939 5.24702 13.2296 5.08255 13.1137 4.88526C12.9978 4.68798 12.9341 4.46439 12.9286 4.23564C12.9161 3.91897 12.8861 3.7023 12.8078 3.51647C12.7231 3.31375 12.5992 3.12971 12.4434 2.97485C12.2875 2.82 12.1027 2.69737 11.8994 2.61397ZM10.4169 13.3206C11.8086 13.3206 12.9361 12.2015 12.9361 10.8206C12.9361 9.43981 11.8078 8.32064 10.4169 8.32064C9.02526 8.32064 7.89776 9.43981 7.89776 10.8206C7.89776 12.2015 9.0261 13.3206 10.4169 13.3206Z" fill="white"/>
</svg>
