<svg width="20" height="21" viewBox="0 0 20 21" fill="none" xmlns="http://www.w3.org/2000/svg">
<path d="M15.8337 2.4873H4.16699C2.75033 2.4873 1.66699 3.57064 1.66699 4.9873V16.654C1.66699 18.0706 2.75033 19.154 4.16699 19.154H15.8337C17.2503 19.154 18.3337 18.0706 18.3337 16.654V4.9873C18.3337 3.57064 17.2503 2.4873 15.8337 2.4873ZM6.66699 14.9873C6.66699 15.4873 6.33366 15.8206 5.83366 15.8206C5.33366 15.8206 5.00033 15.4873 5.00033 14.9873V11.654C5.00033 11.154 5.33366 10.8206 5.83366 10.8206C6.33366 10.8206 6.66699 11.154 6.66699 11.654V14.9873ZM10.8337 14.9873C10.8337 15.4873 10.5003 15.8206 10.0003 15.8206C9.50033 15.8206 9.16699 15.4873 9.16699 14.9873V6.65397C9.16699 6.15397 9.50033 5.82064 10.0003 5.82064C10.5003 5.82064 10.8337 6.15397 10.8337 6.65397V14.9873ZM15.0003 14.9873C15.0003 15.4873 14.667 15.8206 14.167 15.8206C13.667 15.8206 13.3337 15.4873 13.3337 14.9873V9.98731C13.3337 9.48731 13.667 9.15397 14.167 9.15397C14.667 9.15397 15.0003 9.48731 15.0003 9.98731V14.9873Z" fill="white"/>
</svg>
