<svg width="20" height="21" viewBox="0 0 20 21" fill="none" xmlns="http://www.w3.org/2000/svg">
<path fill-rule="evenodd" clip-rule="evenodd" d="M4.16667 6.0293C3.55888 6.0293 2.97598 6.27074 2.54621 6.70051C2.11644 7.13028 1.875 7.71318 1.875 8.32096V15.821C1.875 16.4288 2.11644 17.0116 2.54621 17.4414C2.97598 17.8712 3.55888 18.1126 4.16667 18.1126H15.8333C16.4411 18.1126 17.024 17.8712 17.4538 17.4414C17.8836 17.0116 18.125 16.4288 18.125 15.821V8.32096C18.125 7.71318 17.8836 7.13028 17.4538 6.70051C17.024 6.27074 16.4411 6.0293 15.8333 6.0293H4.16667ZM13.75 11.0293C13.4737 11.0293 13.2088 11.139 13.0134 11.3344C12.8181 11.5297 12.7083 11.7947 12.7083 12.071C12.7083 12.3472 12.8181 12.6122 13.0134 12.8075C13.2088 13.0029 13.4737 13.1126 13.75 13.1126C14.0263 13.1126 14.2912 13.0029 14.4866 12.8075C14.6819 12.6122 14.7917 12.3472 14.7917 12.071C14.7917 11.7947 14.6819 11.5297 14.4866 11.3344C14.2912 11.139 14.0263 11.0293 13.75 11.0293Z" fill="white"/>
<path d="M13.7375 3.37847C13.9842 3.31272 14.2428 3.30454 14.4932 3.35456C14.7436 3.40458 14.9791 3.51147 15.1817 3.66697C15.3842 3.82248 15.5483 4.02244 15.6613 4.25142C15.7743 4.48041 15.8331 4.73229 15.8333 4.98764H7.5L13.7375 3.37847Z" fill="white"/>
</svg>
